<?xml version="1.0" encoding="utf-8"?>
<!-- Generator: Adobe Illustrator 16.0.0, SVG Export Plug-In . SVG Version: 6.00 Build 0)  -->
<!DOCTYPE svg PUBLIC "-//W3C//DTD SVG 1.1//EN" "http://www.w3.org/Graphics/SVG/1.1/DTD/svg11.dtd">
<svg version="1.1" id="Camada_1" xmlns="http://www.w3.org/2000/svg" xmlns:xlink="http://www.w3.org/1999/xlink" x="0px" y="0px"
	 width="800px" height="600px" viewBox="0 0 800 600" enable-background="new 0 0 800 600" xml:space="preserve">
<g>
	<path fill-rule="evenodd" clip-rule="evenodd" fill="#052129" d="M438.126,474.052c-4.368-10.768-11.358-19.843-18.5-28.843
		c-2.285-2.88-5.223-3.765-8.66-4.421c-61.794-11.808-103.14-47.388-122.974-107.15c-5.744-17.31-15.947-29.075-33.47-34.52
		c-9.066-2.815-18.327-5.416-26.864-9.456c-32.397-15.34-55.984-38.947-64.652-74.633c-4.933-20.307,7.227-39.604,27.179-46.203
		c11.326-3.746,19.533,0.036,23.876,11.753c5.002,13.502,12.741,24.871,24.375,33.377c1.72,1.258,4.163,5.931,6.359,1.687
		c1.884-3.645,8.599-7.219,2.582-12.664c-7.804-7.064-13.587-15.637-18.39-24.869c-11.12-21.375-5.893-39.906,14.114-50.708
		c11.173-6.032,18.447-3.834,23.924,7.601c4.108,8.581,7.515,17.57,15.185,23.823c1.991,1.623,3.671,4.497,7.132,2.223
		c3.086-2.028,1.287-4.195,0.818-6.586c-4.269-21.783,3.45-39.57,18.688-54.672c5.791-5.74,12.54-10.271,19.602-14.343
		c9.025-5.202,18.929-8.444,26.223-17.104c5.974-7.096,15.938-7.104,25.091-6.771c13.885,0.506,27.67,4.576,41.726,0.114
		c5.198-1.65,6.699,2.71,6.129,7.254c-1.576,12.554-7.746,22.237-19.158,27.803c-14.708,7.174-29.981,8.744-45.505,2.407
		c-2.348-0.959-4.245-1.905-7.041-0.601c-11.262,5.256-21.824,11.446-30.317,20.689c-3.248,3.534-5.784,7.562-7.206,12.186
		c-3.844,12.497-1.728,15.135,11.048,13.989c10.215-0.917,20.137,0.739,29.617,4.39c3.518,1.355,6.25,1.31,9.428-0.499
		c3.145-1.788,6.44-3.507,9.884-4.541c12.019-3.608,22.569-8.17,30.926-19.029c8.217-10.677,21.882-13.972,35.301-15.41
		c2.836-0.306,5.779-0.549,7.003,2.918c1.103,3.118-0.163,5.222-2.896,6.99c-4.521,2.927-10.269,7.067-8.983,11.958
		c0.921,3.504,8.438,1.771,13.017,2.279c33.914,3.772,64.023,16.541,88.527,40.278c9.781,9.476,18.164,4.835,27.313,1.646
		c9.073-3.163,13.974-9.749,14.231-19.653c0.218-8.315-1.925-16.028-4.996-23.625c-1.197-2.959-3.818-6.203-0.501-9.249
		c3.53-3.241,6.82-0.667,9.886,1.195c37.209,22.601,38.58,76.554,2.59,100.915c-1.603,1.087-3.186,2.198-5.73,3.957
		c12.945,4.954,24.971,9.883,37.227,14.146c9.9,3.446,12.455,9.455,6.461,18.398c-6.675,9.961-17.045,14.484-28.244,16.51
		c-6.426,1.164-7.874,3.814-7.823,9.922c0.171,20.66-3.688,40.664-12.231,59.55c-2.033,4.492-1.555,7.328,1.765,10.987
		c19.25,21.216,31.251,46.214,37.421,74.074c3.478,15.701-3.87,26.588-19.689,28.93c-5.508,0.816-11.211,1.277-16.738,0.831
		c-18.775-1.521-30.04-15.348-28.919-34.29c0.592-9.983-6.642-16.765-11.319-24.495c-1.289-2.126-2.844,0.06-3.984,1.06
		c-12.759,11.179-27.267,19.603-42.693,26.393c-4.219,1.857-3.176,3.45-1.376,6.037c8.864,12.733,14.876,26.85,19.95,41.412
		c12.07,35.755-6.699,43.778-32.096,44.93c-0.275,0.012-0.547,0.141-0.822,0.15c-25.406,1.041-41.813-15.822-39.945-41.248
		C441.264,479.622,440.343,476.718,438.126,474.052z M250.736,135.584c-1.178,0.542-2.354,1.088-3.532,1.631l-0.049-0.025
		c-12.563,4.782-19.363,21.177-9.507,32.932c1.831-2.954,3.554-5.734,5.276-8.513c3.632-3.341,6.989-7.061,10.952-9.949
		c8.508-6.196,8.729-8.675,0.522-16.749c-1.402-0.5-2.702-0.5-3.742,0.77L250.736,135.584z M425.954,126.067l0.049-0.067
		c-9.61,4.285-15.693,11.601-18.573,21.657c-4.213,9.869-3.998,19.665-0.029,29.614c2.842,7.125,6.403,9.205,12.175,2.847
		c3.247-1.506,6.494-3.01,9.742-4.516c4.142-0.552,3.36-2.366,1.31-4.726c-5.896-6.792-7.237-14.85-6.42-23.512
		c0.723-7.647,3.525-14.561,7.106-21.245c0.536-1,2.394-2.282,0.498-3.256c-0.756-0.386-2.385,0.93-3.616,1.468
		C427.076,124.432,426.056,124.657,425.954,126.067z M360.378,77.055c-0.668,0.625-1.337,1.251-2.004,1.876
		c-3.127,4.912,1.822,6.279,4.095,8.039c13.823,10.702,39.942,6.46,50.483-7.91c2.825-2.965,4.846-5.816-1.833-5.347
		c-10.409,0.734-20.59-1.482-30.892-2.058c-7.244-0.407-14.588-0.751-20.062,5.496L360.378,77.055z M247.889,174.877
		c-5.223,6.984-4.188,11.338,3.562,18.044c3.41,2.951,5.862,2.638,8.245-0.818c4.76-6.907,9.992-13.417,16.025-19.257
		c2.794-2.701,2.276-4.768-0.975-6.493c-9.778-10.909-13.228-10.818-22.368,0.693C250.498,169.415,248.044,171.5,247.889,174.877z
		 M597.754,452.114c1.862-0.467,3.897-0.603,5.555-1.462c5.814-3.021,8.013-9.918,4.782-16.622c-3.278-6.806-6.495,1.829-9.981,0.54
		c-0.521-0.191-1.441,0.691-2.178,1.08c-10.435,1.87-20.879,3.236-31.529,0.014c2.109,10.818,6.516,15.415,15.899,17.24
		C586.195,454.051,591.987,453.496,597.754,452.114z M201.97,180.005c-3.349-4.101-7.05-1.943-10.545-0.428
		c-19.18,8.323-24.178,25.771-13.774,48.017c2.018-1.762,2.812-4.049,3.084-6.585c5.54-8.696,10.064-18.778,20.121-22.902
		c7.942-3.254,7.084-7.437,4.062-13.135C204.016,183.271,202.957,181.659,201.97,180.005z M483.293,492.943
		c-9.368-0.354-18.834,1.591-28.093-1.527c-4.907-1.65-4.152,1.543-3.345,4.465c3.894,14.064,17.931,21.063,34.795,17.359
		c5.683,0.318,11.068-0.764,15.748-4.069c5.557-3.925,7.261-13.545,3.172-20.412c-3.556-5.969-6.709,1.12-10.305,1.13
		C491.271,489.902,487.283,491.844,483.293,492.943z M558.319,384.652c-2.079,2.228-4.058,4.562-6.263,6.658
		c-3.871,3.68-3.323,6.654,1.156,9.211c3.029,6.168,6.235,12.26,9.037,18.533c2.461,5.508,6.958,7.667,12.43,8.187
		c5.51,0.522,11.055,0.503,16.305-1.772c13.421-2.467,14.41-4.064,9.52-15.953c-7.313-17.781-17.357-33.857-30.898-47.545
		c-3.987-4.03-4.424-7.305-1.896-12.39c9.091-18.296,13.474-37.823,13.773-58.262c0.152-10.345,0.196-10.345-10.622-9.982
		c-3.647-0.237-7.452-2.349-8.805,4.073c-3.82,18.133-11.563,34.43-24.951,47.655c-12.893,8.979-27.321,14.532-42.319,18.694
		c-9.521,2.641-17.229,7.412-21.733,16.527c-17.641,20.214-39.875,28.882-66.568,27.043c-25.171-1.737-40.755-15.726-39.545-40.178
		c0.564-11.402,0.36-22.927-0.95-34.396c-0.576-5.051-2.081-6.742-7.166-6.336c-7.281,0.581-13.896-1.936-19.388-6.667
		c-13.271-11.439-17.748-25.858-14.396-43.025c5.312-27.206,22.152-40.688,48.66-38.401c7.163,0.618,6.02-6.101,8.661-9.396
		c2.978-3.715-1.155-4.588-3.194-6.008c-6.715-4.678-13.399-9.336-15.701-17.875c-2.681-9.946,2.823-16.461,12.733-14.441
		c5.275,1.075,10.54,1.276,15.829,1.729c3.838,0.329,5.105-1.042,3.851-4.813c-2.072-6.228-1.532-12.737-1.819-19.153
		c1.046-1.695,2.111-3.857,0.987-5.403c-1.461-2.011-3.614-0.048-5.237,0.523c-8.308,2.929-16.701,5.757-23.614,11.562l-0.405-0.199
		l-0.334,0.304c-0.742,0.532-1.482,1.067-2.224,1.601c-12.647,6.803-23.223,16.145-32.784,26.734
		c-2.801,3.103-6.185,5.77-10.025,2.44c-4.016-3.485-0.499-6.822,1.87-9.255c6.412-6.579,13.196-12.8,19.832-19.163
		c3.543-1.608,6.853-3.532,9.323-6.737c-11.374-5.141-25.093-4.775-36.899,0.896c-7.076,1.33-12.826,5.32-18.409,9.475
		c-19.305,14.369-32.328,33.715-43.12,54.813c-4.053,7.926-6.21,8.592-13.521,3.699c-8.136-5.441-15.614-11.713-22.044-19.154
		c-4.427-6.571-9.401-3.337-13.661-0.225c-7.202,5.259-10.847,13.116-14.832,20.943c-4.475,8.791-1.979,14.68,3.905,21.564
		c17.24,20.171,39.213,31.732,64.391,38.662c20.652,5.688,33.943,19.13,40.131,40.064c9.155,30.982,26.81,56.348,53.158,75.266
		c20.065,14.404,42.006,24.292,67.087,25.854c4.594,1.78,7.799,5.188,10.807,8.935c8.242,10.263,15.727,21.049,20.926,33.161
		c2.935,6.842,7.951,9.761,14.837,10.28c5.288,0.4,10.601,0.547,15.841-0.626c3.279-0.536,6.615-0.844,9.828-1.647
		c11.354-2.84,12.208-4.868,7.459-15.506c-9.373-20.992-23.363-38.432-40.689-53.341c-0.493-6.403,2.686-7.615,7.656-4.884
		c3.625,1.988,6.791,4.81,10.163,7.261c4.398,2.873,5.87,11.22,12.633,9.059c10.839-3.461,21.549-7.788,29.876-16.178
		c12.165-6.127,21.721-15.363,30.403-25.613c2.697-3.184,4.929-6.934,9.96-6.445c0.553,0.555,1.106,1.107,1.659,1.662
		C558.768,379.385,558.543,382.016,558.319,384.652z M470.907,322.557l-0.131-0.046c-3.588,0.888-4.253,4.209-5.534,6.89
		c-4.844,10.132-10.396,19.781-17.952,28.193c-10.771,11.992-24.253,17.671-40.263,17.181c-15.73-0.483-21.614-6.183-22.645-21.873
		c-0.329-5.004,0.263-10.065,0.124-15.091c-0.2-7.245-0.585-14.488-1.095-21.715c-0.207-2.938-1.127-5.306-5.108-4.987
		c-4.607,0.367-3.405,3.109-3.174,5.921c0.985,11.988,1.494,23.993,0.94,36.032c-0.621,13.476,5.821,23.893,18.139,29.369
		c10.903,4.847,22.148,5.198,33.579,2.091c17.932-2.863,31.287-12.824,41.727-27.146c2.971-4.077,5.743-8.257,9.973-11.179
		c8.195-2.779,16.439-5.425,24.574-8.373c8.087-2.934,16.651-4.982,23.041-11.383c14.277-11.065,21.229-26.439,25.035-43.458
		c3.079-13.774,2.818-13.816,16.268-12.205c2.501,0.302,5.025,0.642,7.532,0.59c14.39-0.287,28.651-1.229,40.313-11.231
		c3.281-2.814,4.866-5.254-1.118-7.345c-10.29-3.595-20.405-7.728-30.464-11.942c-8.129-3.407-16.427-4.203-24.565-1.169
		c-7.089,2.645-9.965,0.196-12.376-6.376c-6.172-16.822-17.137-30.299-32.137-39.907c-20.514-13.142-42.606-19.339-66.94-11.84
		c-14.724,0.897-26.173,8.882-37.356,17.364c-3.144,2.387-1.771,3.888,1.224,5.238c5.353,2.415,9.167,6.308,10.601,12.229
		c0.914,3.765,1.431,7.688-3.209,9.005c-4.303,1.221-6.641-1.159-7.476-5.613c-1.138-6.067-5.644-7.134-10.9-6.177
		c-4.795,0.872-13.357,11.232-13.615,15.98c-0.096,1.763,0.874,2.524,2.126,3.171c6.442,3.337,12.606,6.987,20.593,5.196
		c6.238-1.4,12.754-1.817,19.172-2.106c19.383-0.878,35.021,6.1,45.685,22.782c7.042,11.016,9.036,23.323,8.862,36.139
		c-1.673,9.578-4.722,18.546-11.452,25.883C472.237,321.284,471.572,321.919,470.907,322.557z M601.305,159.107
		c-1.637-6.199-5.256-11.089-10.005-16.202c-1.235,7.464,0.147,13.749,1.249,20.053c-9.891,29.701-36.215,27.173-60.823,29.746
		c3.717,3.606,6.489,6.298,9.265,8.989c3.873,5.646,7.745,11.297,11.618,16.944c2.033,8.445,6.884,10.198,14.718,6.883
		c5.139-2.173,10.445-3.937,15.245-6.853C603.76,205.807,611.627,180.771,601.305,159.107z M434.463,154.701
		c2.319,10.195,7.963,16.245,15.631,14.927c9.409-1.618,18.822-0.781,28.199-1.57c1.406,0.227,2.811,0.453,4.216,0.682
		c0.826,0.272,1.651,0.545,2.479,0.816c9.137,2.589,18.123,5.501,26.827,9.429c6.443,2.909,13.45,3.412,21.523,1.812
		c-26.402-22.634-55.66-34.854-89.256-36.796C433.109,143.365,432.32,143.839,434.463,154.701z M336.699,285.988
		c4.738,14.574,14.875,20.903,29.41,17.046c13.392-3.556,25.339-1.634,36.637,6.102c2.984,2.044,6.139,3.95,9.443,5.392
		c13.866,6.045,28.073,8.804,42.908,3.566c9.003-1.867,14.459-7.351,16.573-16.246c9.855-31.189-13.164-59.792-45.247-55.358
		c-16.522,2.284-31.853,2.611-46.663-7.148c-7.403-4.879-16.733-6.551-25.512-1.253
		C338.905,246.555,330.543,269.374,336.699,285.988z M407.396,364.903c17.889-0.191,29.693-9.087,38.879-22.603
		c3.026-4.452-0.428-4.578-3.025-5.021c-14.649-2.496-28.504-0.322-41.064,7.88c-4.566,2.979-8.664,6.899-7.032,13.094
		C396.925,364.979,403.098,364.186,407.396,364.903z M348.501,89.799c-18.907,2.969-40.166,20.818-46.3,37.351
		c-2.506,6.752-4.335,13.791-2.583,21.162c0.492,2.07,0.269,5.009,3.702,4.165c2.784-0.686,5.385-1.974,4.625-5.73
		c-4.001-19.797,5.996-33.054,20.787-43.863C335.105,98.223,341.9,94.143,348.501,89.799z M374.017,190.318
		c0.198,4.525,4.287,6.884,7.54,9.553c7.687,6.306,9.92,5.914,15.565-2.165c2.804-4.013,3.52-7.349-3.15-7.381
		C387.433,190.292,380.893,190.318,374.017,190.318z"/>
	<path fill-rule="evenodd" clip-rule="evenodd" fill="#FDB913" d="M438.126,474.052c2.217,2.666,3.138,5.57,2.872,9.179
		c-1.867,25.426,14.539,42.289,39.945,41.248c0.275-0.01,0.547-0.139,0.822-0.15c25.396-1.151,44.166-9.175,32.096-44.93
		c36.385,3.205,72.829,6.049,108.315,15.438c5.086,1.346,9.892,3.823,14.735,5.979c3.133,1.396,6.111,3.304,6.013,7.299
		c-0.103,4.206-3.259,6.544-6.504,8.097c-8.101,3.875-16.727,6.477-25.481,8.271c-25.972,5.319-52.279,8.072-78.661,10.673
		c-63.365,6.244-126.892,5.754-190.347,4.39c-42.307-0.906-84.688-3.397-126.59-10.83c-15.148-2.688-30.295-4.951-44.776-10.315
		c-2.598-0.962-5.313-1.976-7.51-3.595c-6.391-4.708-6.003-9.563,0.929-13.65c11.826-6.973,25.216-9.021,38.354-11.47
		c31.288-5.829,62.971-8.13,94.69-10.47c44.428-3.276,88.876-3.201,133.353-3.129C433.1,476.092,436.086,476.778,438.126,474.052z"
		/>
	<path fill-rule="evenodd" clip-rule="evenodd" fill="#1780A6" d="M557.332,375.088c-5.031-0.488-7.263,3.262-9.96,6.445
		c-8.683,10.25-18.238,19.486-30.403,25.611c-14.22,2.079-27.885,7.465-42.509,7.121c-3.372-2.451-6.538-5.272-10.163-7.261
		c-4.971-2.731-8.149-1.52-7.656,4.884c-11.896,2.739-15.811,14.094-8.033,23.633c3.703,4.544,7.998,8.623,11.505,13.299
		c7.837,10.457,16.939,20.214,19.931,33.563c-5.24,1.173-10.553,1.026-15.841,0.626c-6.886-0.52-11.902-3.438-14.837-10.28
		c-5.199-12.112-12.684-22.898-20.926-33.161c-3.008-3.746-6.213-7.154-10.807-8.935c-0.094-3.851-3.217-4.903-5.891-6.365
		c-7.186-3.928-15.239-5.385-22.848-8.094c-42.531-15.131-69.916-45.748-83.625-87.643c-8.712-26.628-25.313-41.38-51.645-47.938
		c-17.282-4.303-32.972-12.613-45.68-25.343c-17.05-17.079-12.756-37.202,9.509-46.747c6.43,7.441,13.908,13.713,22.044,19.154
		c7.31,4.893,9.467,4.227,13.521-3.699c10.792-21.098,23.814-40.443,43.12-54.813c5.583-4.154,11.333-8.145,18.412-9.475
		c9.557,0.227,19.478-1.273,27.574,5.841c-6.635,6.363-13.419,12.584-19.832,19.163c-2.369,2.433-5.886,5.77-1.87,9.255
		c3.84,3.329,7.224,0.662,10.025-2.44c9.561-10.59,20.136-19.932,32.787-26.734c0.742-0.533,1.481-1.068,2.221-1.601l0.334-0.304
		c0,0,0.405,0.199,0.407,0.199c9.289-2.229,18.576-4.456,27.863-6.682c0.288,6.416-0.253,12.926,1.819,19.153
		c1.254,3.771-0.013,5.142-3.851,4.813c-5.29-0.453-10.554-0.654-15.829-1.729c-9.91-2.02-15.414,4.495-12.733,14.441
		c2.302,8.539,8.986,13.197,15.701,17.875c2.039,1.42,6.172,2.293,3.194,6.008c-2.641,3.296-1.498,10.015-8.661,9.396
		c-26.507-2.286-43.348,11.195-48.66,38.401c-3.352,17.167,1.125,31.586,14.396,43.025c5.491,4.731,12.107,7.248,19.388,6.667
		c5.084-0.406,6.589,1.285,7.166,6.336c1.31,11.47,1.515,22.994,0.95,34.396c-1.21,24.452,14.374,38.44,39.545,40.178
		c26.693,1.839,48.928-6.829,66.568-27.041c18.108-1.646,34.748-7.648,49.012-18.776c5.725-4.467,14.47-6.976,15.041-16.447
		c13.389-13.226,21.131-29.522,24.951-47.655c1.353-6.422,5.157-4.311,8.805-4.074c-0.037,4.48-0.293,8.971-0.076,13.439
		c1.123,23.01-2.355,45.192-12.395,66.023C556.016,365.729,555.273,370.141,557.332,375.088z"/>
	<path fill-rule="evenodd" clip-rule="evenodd" fill="#1780A6" d="M527.102,326.441c-6.39,6.4-14.954,8.449-23.041,11.383
		c-8.135,2.948-16.379,5.594-24.576,8.373c4.629-16.859,7.253-33.909,4.869-51.434c0.176-12.813-1.818-25.121-8.86-36.137
		c-10.663-16.683-26.302-23.66-45.685-22.782c-6.418,0.289-12.934,0.706-19.172,2.106c-7.986,1.791-14.15-1.859-20.593-5.196
		c-1.253-0.646-2.223-1.408-2.126-3.171c0.257-4.748,8.819-15.108,13.615-15.98c5.257-0.957,9.763,0.109,10.9,6.177
		c0.835,4.454,3.173,6.834,7.476,5.613c4.64-1.316,4.123-5.24,3.209-9.005c-1.434-5.921-5.248-9.813-10.601-12.229
		c-2.995-1.351-4.367-2.852-1.224-5.238c11.184-8.482,22.633-16.467,37.359-17.364c5.593,0.079,11.271-0.445,16.768,0.328
		c65.955,9.276,99.22,81.681,63.456,137.634C527.696,321.364,523.611,323.146,527.102,326.441z M500.283,235.757
		c0-9.823-4.75-16.618-14.269-20.411c-9.564-3.813-20.384-1.941-26.372,4.637c-2.582,2.837-4.683,6.103-1.504,9.59
		c3.221,3.537,6.881,3.021,10.254-0.195c0.804-0.764,1.618-1.561,2.554-2.135c7.287-4.479,17.133,0.719,16.619,9.273
		c-0.333,5.529,0.747,9.124,6.579,9.035C500.56,245.453,500.254,240.309,500.283,235.757z"/>
	<path fill-rule="evenodd" clip-rule="evenodd" fill="#F5C002" d="M471.671,301.848c-2.114,8.896-7.57,14.379-16.573,16.246
		c-19.258,0.134-36.566-5.966-52.805-15.99c-9.518-5.877-19.433-11.149-31.329-7.672c-13.075,3.823-24.734,2.043-34.265-8.443
		c-6.156-16.614,2.206-39.434,17.548-47.896c9.893-0.228,19.852,0.023,28.148,6.192c10.447,7.769,21.597,8.966,34.153,6.821
		c17.665-3.016,34.148-0.706,46.119,14.915C470.857,276.709,472.141,289.033,471.671,301.848z M435.07,285.819
		c4.768-0.071,10.422-0.906,12.705-7.131c1.608-4.388-0.529-8.146-4.113-10.954c-6.73-5.266-19.392-4.855-25.713,0.795
		c-6.611,5.909-5.832,10.736,2.341,14.313C424.666,284.758,429.244,285.795,435.07,285.819z M368.938,272.863
		c3.917-0.758,10.418,1.594,10.595-6.414c0.164-7.377-7.624-14.089-16.067-13.832c-6.013,0.184-12.383,0.902-12.978,8.763
		C349.991,267.934,357.811,272.695,368.938,272.863z"/>
	<path fill-rule="evenodd" clip-rule="evenodd" fill="#36A2CB" d="M527.102,326.441c-3.49-3.295,0.595-5.077,1.774-6.922
		c35.764-55.953,2.499-128.357-63.456-137.634c-5.496-0.773-11.175-0.249-16.768-0.328c24.331-7.499,46.424-1.302,66.938,11.84
		c15,9.608,25.965,23.085,32.137,39.907c2.411,6.572,5.287,9.021,12.376,6.376c8.139-3.034,16.437-2.238,24.565,1.169
		c10.059,4.215,20.174,8.348,30.464,11.942c5.984,2.091,4.399,4.53,1.118,7.345c-11.662,10.002-25.924,10.944-40.313,11.231
		c-2.507,0.052-5.031-0.288-7.532-0.59c-13.449-1.611-13.188-1.569-16.268,12.205C548.33,300.002,541.379,315.376,527.102,326.441z
		 M560.615,262.289c12.931,5.617,25.838,5.205,38.727-0.145c2.132-0.336,4.442-0.254,6.203-2.858
		c-10.398-1.589-19.962-4.979-29.608-8.167c-4.329-1.43-9.006-3.158-13.828-0.91C555.98,253.066,555.277,258.315,560.615,262.289z"
		/>
	<path fill-rule="evenodd" clip-rule="evenodd" fill="#0E5B79" d="M217.454,208.504c-22.265,9.545-26.56,29.668-9.509,46.747
		c12.708,12.729,28.397,21.04,45.68,25.343c26.332,6.558,42.933,21.31,51.645,47.938c13.709,41.895,41.094,72.512,83.625,87.643
		c7.609,2.709,15.663,4.166,22.848,8.094c2.674,1.462,5.797,2.515,5.891,6.365c-25.082-1.562-47.022-11.449-67.087-25.854
		c-26.348-18.918-44.003-44.283-53.158-75.266c-6.188-20.935-19.479-34.376-40.131-40.064c-25.177-6.93-47.15-18.491-64.391-38.662
		c-5.884-6.885-8.38-12.773-3.905-21.564c3.985-7.827,7.63-15.685,14.832-20.943C208.053,205.167,213.027,201.933,217.454,208.504z"
		/>
	<path fill-rule="evenodd" clip-rule="evenodd" fill="#36A2CB" d="M557.332,375.088c-2.059-4.947-1.316-9.359,1.059-14.289
		c10.039-20.831,13.518-43.014,12.395-66.023c-0.217-4.469,0.039-8.959,0.076-13.439c10.818-0.361,10.774-0.361,10.622,9.983
		c-0.3,20.438-4.683,39.966-13.773,58.262c-2.528,5.085-2.092,8.359,1.896,12.39c13.541,13.688,23.586,29.764,30.898,47.545
		c4.891,11.889,3.901,13.486-9.52,15.953c-4.089-11.059-9.199-21.684-16.027-31.242c-4.561-6.384-7.789-14.288-15.966-17.477
		C558.438,376.195,557.885,375.643,557.332,375.088z"/>
	<path fill-rule="evenodd" clip-rule="evenodd" fill="#38A6CF" d="M480.043,482.383c-2.991-13.349-12.094-23.105-19.931-33.563
		c-3.507-4.676-7.802-8.755-11.505-13.299c-7.777-9.539-3.863-20.894,8.033-23.633c17.326,14.909,31.316,32.349,40.689,53.341
		c4.749,10.638,3.895,12.666-7.459,15.506C486.658,481.539,483.322,481.847,480.043,482.383z"/>
	<path fill-rule="evenodd" clip-rule="evenodd" fill="#EB9302" d="M427.787,384.521c-11.431,3.107-22.676,2.756-33.579-2.091
		c-12.318-5.477-18.76-15.894-18.139-29.369c0.554-12.039,0.045-24.044-0.94-36.032c-0.23-2.812-1.433-5.554,3.174-5.921
		c3.981-0.318,4.902,2.05,5.108,4.987c0.51,7.227,0.895,14.47,1.095,21.715c0.139,5.025-0.453,10.087-0.124,15.091
		c1.03,15.69,6.914,21.39,22.645,21.873c16.01,0.49,29.491-5.188,40.263-17.181c7.556-8.412,13.108-18.062,17.952-28.193
		c1.281-2.681,1.946-6.002,5.535-6.89c0.139,1.103,0.686,2.35,0.354,3.284c-6.74,18.973-16.31,36.18-31.515,49.799
		C435.926,378.898,430.465,379.867,427.787,384.521z"/>
	<path fill-rule="evenodd" clip-rule="evenodd" fill="#36A2CB" d="M482.509,168.739c-1.405-0.229-2.81-0.455-4.217-0.682
		c-0.22-1.874-1.376-2.717-3.089-3.407c-13.107-5.284-26.667-8.654-40.74-9.949c-2.143-10.862-1.354-11.336,9.619-10.701
		c33.596,1.942,62.854,14.162,89.256,36.796c-8.073,1.601-15.08,1.098-21.523-1.812c-8.704-3.928-17.69-6.84-26.827-9.429
		C484.16,169.284,483.335,169.014,482.509,168.739z"/>
	<path fill-rule="evenodd" clip-rule="evenodd" fill="#F5C002" d="M592.549,162.958c-1.102-6.304-2.484-12.589-1.249-20.053
		c4.749,5.113,8.368,10.003,10.005,16.204c-0.084,3.336-0.221,6.672-0.244,10.007c-0.185,26.689-21.807,48.799-48.452,49.521
		c-3.873-5.647-7.745-11.298-11.614-16.942c13.782-1.405,26.843-5.086,38.082-13.44C587.42,182.05,593.376,174.221,592.549,162.958z
		"/>
	<path fill-rule="evenodd" clip-rule="evenodd" fill="#D76165" d="M407.396,364.903c-4.299-0.718-10.472,0.075-12.243-6.649
		c-1.631-6.194,2.466-10.114,7.032-13.094c12.561-8.202,26.415-10.376,41.064-7.88c2.598,0.442,6.052,0.568,3.025,5.021
		C437.09,355.816,425.285,364.712,407.396,364.903z"/>
	<path fill-rule="evenodd" clip-rule="evenodd" fill="#F0BD03" d="M427.787,384.521c2.678-4.654,8.139-5.623,11.829-8.928
		c15.205-13.619,24.774-30.826,31.515-49.799c0.332-0.935-0.215-2.182-0.354-3.284c-0.001,0,0.13,0.046,0.132,0.046
		c1.157-0.121,1.798-0.782,1.994-1.908c6.73-7.337,9.779-16.305,11.451-25.883c2.383,17.522-0.241,34.572-4.87,51.432
		c-4.228,2.922-7,7.102-9.971,11.179C459.074,371.697,445.719,381.658,427.787,384.521z"/>
	<path fill-rule="evenodd" clip-rule="evenodd" fill="#1780A6" d="M558.991,376.75c8.177,3.188,11.405,11.093,15.966,17.477
		c6.828,9.559,11.938,20.184,16.027,31.242c-5.25,2.275-10.795,2.295-16.305,1.772c-5.472-0.52-9.969-2.679-12.43-8.187
		c-2.802-6.273-6.008-12.365-9.031-18.535c4.689-4.33,6.18-9.686,5.101-15.867C558.543,382.016,558.768,379.385,558.991,376.75z"/>
	<path fill-rule="evenodd" clip-rule="evenodd" fill="#EB9302" d="M336.699,285.988c9.531,10.486,21.19,12.267,34.265,8.443
		c11.896-3.478,21.811,1.795,31.329,7.672c16.238,10.024,33.547,16.124,52.805,15.99c-14.835,5.237-29.042,2.479-42.908-3.566
		c-3.305-1.441-6.459-3.348-9.443-5.392c-11.298-7.735-23.245-9.657-36.637-6.102C351.574,306.892,341.438,300.563,336.699,285.988z
		"/>
	<path fill-rule="evenodd" clip-rule="evenodd" fill="#EB9302" d="M552.608,218.638c26.646-0.723,48.268-22.832,48.452-49.521
		c0.023-3.335,0.16-6.671,0.244-10.007c10.322,21.662,2.455,46.697-18.733,59.559c-4.8,2.916-10.106,4.68-15.245,6.853
		C559.492,228.836,554.642,227.083,552.608,218.638z"/>
	<path fill-rule="evenodd" clip-rule="evenodd" fill="#F2E79B" d="M471.671,301.848c0.47-12.814-0.813-25.139-9.003-35.827
		c-11.971-15.621-28.454-17.931-46.119-14.915c-12.557,2.145-23.706,0.947-34.153-6.821c-8.297-6.169-18.256-6.42-28.148-6.192
		c8.78-5.302,18.11-3.63,25.514,1.249c14.811,9.76,30.141,9.433,46.663,7.148C458.507,242.056,481.526,270.658,471.671,301.848z"/>
	<path fill-rule="evenodd" clip-rule="evenodd" fill="#EB9302" d="M486.65,513.24c-16.864,3.704-30.901-3.295-34.795-17.359
		c-0.808-2.922-1.563-6.115,3.345-4.465c9.259,3.118,18.725,1.173,28.093,1.527C484.412,499.711,485.531,506.473,486.65,513.24z"/>
	<path fill-rule="evenodd" clip-rule="evenodd" fill="#EB9302" d="M412.952,79.06c-10.541,14.37-36.661,18.612-50.483,7.91
		c-2.272-1.76-7.222-3.127-4.095-8.039c0.668-0.625,1.337-1.251,2.004-1.876l-0.212,0.097
		C377.846,75.466,395.172,83.533,412.952,79.06z"/>
	<path fill-rule="evenodd" clip-rule="evenodd" fill="#0E5B79" d="M537.105,333.065c-0.571,9.472-9.316,11.98-15.041,16.447
		c-14.264,11.128-30.903,17.131-49.012,18.776c4.504-9.117,12.213-13.889,21.733-16.529
		C509.784,347.598,524.213,342.045,537.105,333.065z"/>
	<path fill-rule="evenodd" clip-rule="evenodd" fill="#F0BD03" d="M201.97,180.005c0.987,1.654,2.046,3.267,2.948,4.967
		c3.022,5.698,3.88,9.881-4.062,13.135c-10.057,4.124-14.582,14.206-20.122,22.905c-0.316-2.773-0.307-5.63-1.001-8.305
		C176.467,200.139,185.638,182.062,201.97,180.005z"/>
	<path fill-rule="evenodd" clip-rule="evenodd" fill="#F5C002" d="M429.317,175.603c-3.248,1.506-6.495,3.01-9.742,4.516
		c-10.126-8.549-12.479-19.999-12.146-32.461c2.88-10.057,8.963-17.372,18.573-21.657c0.534,4.261-2.671,7.109-4.118,10.6
		C415.039,153.086,417.475,166.387,429.317,175.603z"/>
	<path fill-rule="evenodd" clip-rule="evenodd" fill="#F0BD03" d="M486.65,513.24c-1.119-6.768-2.238-13.529-3.357-20.297
		c3.99-1.1,7.979-3.041,11.973-3.055c3.596-0.01,6.749-7.099,10.305-1.13c4.089,6.867,2.385,16.487-3.172,20.412
		C497.719,512.477,492.333,513.559,486.65,513.24z"/>
	<path fill-rule="evenodd" clip-rule="evenodd" fill="#EB9302" d="M597.754,452.114c-5.767,1.382-11.559,1.937-17.452,0.79
		c-9.384-1.825-13.79-6.422-15.899-17.24c10.65,3.223,21.095,1.856,31.53-0.014C596.54,441.139,597.146,446.626,597.754,452.114z"/>
	<path fill-rule="evenodd" clip-rule="evenodd" fill="#0E5B79" d="M348.501,89.799c-6.601,4.344-13.396,8.424-19.769,13.084
		c-14.791,10.81-24.788,24.066-20.787,43.863c0.759,3.757-1.841,5.045-4.625,5.73c-3.433,0.844-3.21-2.095-3.702-4.165
		c-1.753-7.371,0.076-14.41,2.583-21.162C308.335,110.617,329.594,92.768,348.501,89.799z"/>
	<path fill-rule="evenodd" clip-rule="evenodd" fill="#F2E79B" d="M592.549,162.958c0.827,11.263-5.129,19.092-13.473,25.297
		c-11.239,8.354-24.3,12.035-38.082,13.44c-2.779-2.693-5.552-5.385-9.269-8.991C556.334,190.131,582.658,192.659,592.549,162.958z"
		/>
	<path fill-rule="evenodd" clip-rule="evenodd" fill="#1780A6" d="M434.463,154.701c14.073,1.295,27.633,4.665,40.74,9.949
		c1.713,0.69,2.869,1.533,3.089,3.407c-9.376,0.789-18.789-0.048-28.198,1.57C442.426,170.946,436.782,164.896,434.463,154.701z"/>
	<path fill-rule="evenodd" clip-rule="evenodd" fill="#1780A6" d="M247.889,174.877c0.155-3.377,2.609-5.462,4.488-7.831
		c9.14-11.512,12.59-11.603,22.368-0.693c-0.146,2.215-1.86,3.171-3.33,4.458c-3.742,3.273-6.838,7.622-11.074,9.913
		C254.55,183.852,253.239,174.488,247.889,174.877z"/>
	<path fill-rule="evenodd" clip-rule="evenodd" fill="#EB9302" d="M201.97,180.005c-16.332,2.057-25.503,20.134-22.237,32.702
		c0.695,2.675,0.686,5.531,1.001,8.305c-0.272,2.533-1.066,4.82-3.083,6.582c-10.403-22.246-5.405-39.693,13.774-48.017
		C194.919,178.062,198.621,175.904,201.97,180.005z"/>
	<path fill-rule="evenodd" clip-rule="evenodd" fill="#0E5B79" d="M247.889,174.877c5.351-0.389,6.661,8.975,12.452,5.847
		c4.236-2.291,7.333-6.64,11.074-9.913c1.47-1.287,3.184-2.243,3.33-4.458c3.251,1.726,3.769,3.792,0.975,6.493
		c-6.033,5.84-11.265,12.35-16.025,19.257c-2.383,3.456-4.835,3.77-8.245,0.818C243.701,186.215,242.666,181.861,247.889,174.877z"
		/>
	<path fill-rule="evenodd" clip-rule="evenodd" fill="#F0BD03" d="M412.952,79.06c-17.78,4.474-35.106-3.594-52.786-1.908
		c5.473-6.247,12.817-5.903,20.062-5.496c10.301,0.575,20.482,2.792,30.892,2.058C417.798,73.243,415.777,76.095,412.952,79.06z"/>
	<path fill-rule="evenodd" clip-rule="evenodd" fill="#F0BD03" d="M254.398,134.91c8.206,8.074,7.985,10.553-0.522,16.749
		c-3.963,2.889-7.32,6.608-10.952,9.949c-5.575-6.938-3.948-13.366,1.4-19.514c1.267-1.456,2.998-2.627,2.83-4.905
		c0,0,0.049,0.025,0.051,0.027c1.68,0.538,3.023,0.355,3.531-1.633c0,0-0.08,0.096-0.077,0.096
		C252.063,136.183,253.32,135.979,254.398,134.91z"/>
	<path fill-rule="evenodd" clip-rule="evenodd" fill="#F2E79B" d="M429.317,175.603c-11.843-9.216-14.278-22.517-7.433-39.003
		c1.447-3.49,4.652-6.339,4.118-10.6l-0.049,0.067c1.397,0.263,1.911-0.618,2.241-1.735c1.231-0.538,2.86-1.854,3.616-1.468
		c1.896,0.974,0.038,2.256-0.498,3.256c-3.581,6.685-6.384,13.598-7.106,21.245c-0.817,8.662,0.523,16.72,6.42,23.512
		C432.678,173.236,433.459,175.051,429.317,175.603z"/>
	<path fill-rule="evenodd" clip-rule="evenodd" fill="#0E5B79" d="M474.46,414.266c14.624,0.344,28.289-5.042,42.509-7.121
		c-8.327,8.392-19.037,12.719-29.876,16.18C480.33,425.485,478.858,417.139,474.46,414.266z"/>
	<path fill-rule="evenodd" clip-rule="evenodd" fill="#1780A6" d="M374.017,190.318c6.876,0,13.416-0.026,19.955,0.007
		c6.67,0.032,5.954,3.368,3.15,7.381c-5.645,8.079-7.878,8.471-15.565,2.165C378.303,197.202,374.214,194.844,374.017,190.318z"/>
	<path fill-rule="evenodd" clip-rule="evenodd" fill="#F0BD03" d="M597.754,452.114c-0.607-5.488-1.214-10.976-1.821-16.464
		c0.735-0.389,1.655-1.271,2.177-1.08c3.486,1.289,6.703-7.346,9.981-0.54c3.23,6.704,1.032,13.602-4.782,16.622
		C601.651,451.512,599.616,451.647,597.754,452.114z"/>
	<path fill-rule="evenodd" clip-rule="evenodd" fill="#EB9302" d="M407.43,147.657c-0.334,12.462,2.02,23.912,12.146,32.461
		c-5.771,6.358-9.333,4.278-12.175-2.847C403.432,167.322,403.217,157.526,407.43,147.657z"/>
	<path fill-rule="evenodd" clip-rule="evenodd" fill="#EB9302" d="M247.154,137.189c0.168,2.278-1.563,3.449-2.83,4.905
		c-5.348,6.147-6.975,12.575-1.4,19.514c-1.723,2.778-3.446,5.559-5.276,8.513C227.791,158.366,234.591,141.972,247.154,137.189z"/>
	<path fill-rule="evenodd" clip-rule="evenodd" fill="#36A2CB" d="M342.124,165.513c-8.096-7.114-18.017-5.614-27.574-5.841
		c11.804-5.672,25.523-6.037,36.896-0.896C348.976,161.98,345.667,163.904,342.124,165.513z"/>
	<path fill-rule="evenodd" clip-rule="evenodd" fill="#36A2CB" d="M394.059,156.369c-9.287,2.226-18.574,4.453-27.863,6.682
		c6.912-5.805,15.305-8.633,23.613-11.562c1.623-0.571,3.776-2.534,5.237-0.523C396.17,152.512,395.104,154.674,394.059,156.369z"/>
	<path fill-rule="evenodd" clip-rule="evenodd" fill="#0E5B79" d="M558.319,384.652c1.079,6.182-0.411,11.537-5.101,15.867
		c-4.485-2.555-5.033-5.529-1.162-9.209C554.262,389.214,556.24,386.88,558.319,384.652z"/>
	<path fill-rule="evenodd" clip-rule="evenodd" fill="#EB9302" d="M254.398,134.91c-1.078,1.068-2.336,1.272-3.74,0.77
		C251.696,134.41,252.997,134.41,254.398,134.91z"/>
	<path fill-rule="evenodd" clip-rule="evenodd" fill="#EB9302" d="M250.736,135.584c-0.507,1.988-1.851,2.171-3.531,1.633
		C248.381,136.672,249.558,136.126,250.736,135.584z"/>
	<path fill-rule="evenodd" clip-rule="evenodd" fill="#F0BD03" d="M360.378,77.055c-0.667,0.625-1.335,1.251-2.004,1.876
		C359.041,78.306,359.709,77.68,360.378,77.055z"/>
	<path fill-rule="evenodd" clip-rule="evenodd" fill="#F5C002" d="M428.195,124.332c-0.33,1.117-0.844,1.998-2.241,1.735
		C426.056,124.657,427.076,124.432,428.195,124.332z"/>
	<path fill-rule="evenodd" clip-rule="evenodd" fill="#EB9302" d="M472.903,320.648c-0.196,1.126-0.837,1.787-1.994,1.908
		C471.572,321.919,472.237,321.284,472.903,320.648z"/>
	<path fill-rule="evenodd" clip-rule="evenodd" fill="#36A2CB" d="M365.455,163.155c-0.74,0.532-1.479,1.067-2.221,1.601
		C363.972,164.223,364.713,163.688,365.455,163.155z"/>
	<path fill-rule="evenodd" clip-rule="evenodd" fill="#1780A6" d="M482.509,168.739c0.826,0.274,1.651,0.545,2.479,0.816
		C484.16,169.284,483.335,169.012,482.509,168.739z"/>
	<path fill-rule="evenodd" clip-rule="evenodd" fill="#052129" d="M500.286,235.759c-0.032,4.55,0.273,9.694-6.142,9.792
		c-5.832,0.089-6.912-3.506-6.579-9.035c0.514-8.555-9.332-13.753-16.619-9.273c-0.936,0.574-1.75,1.371-2.554,2.135
		c-3.373,3.216-7.033,3.732-10.254,0.195c-3.179-3.487-1.078-6.753,1.504-9.59c5.988-6.578,16.808-8.449,26.372-4.637
		C495.533,219.139,500.283,225.934,500.286,235.759z"/>
	<path fill-rule="evenodd" clip-rule="evenodd" fill="#052129" d="M435.07,285.819c-5.826-0.024-10.404-1.062-14.78-2.978
		c-8.173-3.576-8.952-8.403-2.341-14.313c6.321-5.65,18.982-6.061,25.713-0.795c3.584,2.808,5.722,6.566,4.113,10.954
		C445.492,284.913,439.838,285.748,435.07,285.819z"/>
	<path fill-rule="evenodd" clip-rule="evenodd" fill="#052129" d="M368.938,272.863c-11.127-0.168-18.947-4.93-18.45-11.483
		c0.595-7.86,6.964-8.579,12.978-8.763c8.443-0.257,16.231,6.455,16.067,13.832C379.356,274.457,372.855,272.105,368.938,272.863z"
		/>
	<path fill-rule="evenodd" clip-rule="evenodd" fill="#05222A" d="M560.615,262.289c-5.338-3.974-4.635-9.223,1.493-12.08
		c4.822-2.248,9.499-0.52,13.828,0.91c9.646,3.188,19.21,6.578,29.608,8.167c-1.761,2.604-4.071,2.522-6.203,2.858
		c-9.062-2.097-18.066-4.498-27.204-6.172C567.07,255.045,561.988,255.705,560.615,262.289z"/>
	<path fill-rule="evenodd" clip-rule="evenodd" fill="#0E5B79" d="M560.615,262.289c1.373-6.584,6.455-7.244,11.522-6.316
		c9.138,1.674,18.143,4.075,27.204,6.172C586.453,267.494,573.546,267.906,560.615,262.289z"/>
</g>
</svg>
