<?xml version="1.0" encoding="utf-8"?>
<!-- Generator: Adobe Illustrator 16.0.0, SVG Export Plug-In . SVG Version: 6.00 Build 0)  -->
<!DOCTYPE svg PUBLIC "-//W3C//DTD SVG 1.1//EN" "http://www.w3.org/Graphics/SVG/1.1/DTD/svg11.dtd">
<svg version="1.1" id="Camada_1" xmlns="http://www.w3.org/2000/svg" xmlns:xlink="http://www.w3.org/1999/xlink" x="0px" y="0px"
	 width="54.957px" height="41.266px" viewBox="0 0 54.957 41.266" enable-background="new 0 0 54.957 41.266" xml:space="preserve">
<path fill="#FFFFFF" d="M52.726,11.486c-2.142-3.445-5.657-6.305-10.024-8.315C38.332,1.162,33.101,0.001,27.479,0
	C19.982,0.002,13.181,2.062,8.192,5.455c-2.493,1.698-4.534,3.734-5.961,6.031C0.805,13.78-0.001,16.343,0,19.033
	c-0.002,3.118,1.082,6.06,2.958,8.618c1.671,2.28,3.966,4.269,6.711,5.884c-1.982,2.396-4.784,4.495-8.821,5.12
	C0.367,38.729,0.01,39.138,0,39.624c-0.01,0.485,0.332,0.908,0.81,1.001c2.251,0.438,4.321,0.641,6.222,0.641
	c5.331,0.006,9.315-1.63,12.004-4.127c2.664,0.595,5.495,0.929,8.443,0.929c7.496-0.002,14.299-2.062,19.286-5.455
	c2.493-1.698,4.534-3.735,5.961-6.031c1.427-2.295,2.232-4.857,2.231-7.548C54.958,16.343,54.152,13.78,52.726,11.486z
	 M51.027,25.525c-1.878,3.028-5.076,5.676-9.162,7.554c-4.083,1.88-9.041,2.989-14.387,2.988c-2.984,0-5.845-0.35-8.505-0.982
	c-0.338-0.081-0.697,0.021-0.941,0.269c-2.278,2.291-5.811,3.906-11.001,3.912c-0.451,0-0.915-0.014-1.391-0.039
	c2.774-1.342,4.858-3.351,6.343-5.402c0.17-0.234,0.229-0.53,0.165-0.813c-0.065-0.282-0.249-0.521-0.504-0.658
	c-2.985-1.591-5.41-3.611-7.072-5.884C2.909,24.194,2.001,21.685,2,19.033c0.001-2.29,0.677-4.472,1.931-6.492
	c1.877-3.027,5.076-5.675,9.162-7.553c4.083-1.88,9.04-2.989,14.386-2.988c7.129-0.002,13.565,1.975,18.161,5.108
	c2.298,1.564,4.134,3.414,5.388,5.433c1.253,2.021,1.929,4.202,1.93,6.492C52.956,21.323,52.28,23.505,51.027,25.525z"/>
</svg>
