<?xml version="1.0" encoding="utf-8"?>
<!-- Generator: Adobe Illustrator 16.0.0, SVG Export Plug-In . SVG Version: 6.00 Build 0)  -->
<!DOCTYPE svg PUBLIC "-//W3C//DTD SVG 1.1//EN" "http://www.w3.org/Graphics/SVG/1.1/DTD/svg11.dtd">
<svg version="1.1" id="Camada_1" xmlns="http://www.w3.org/2000/svg" xmlns:xlink="http://www.w3.org/1999/xlink" x="0px" y="0px"
	 width="44px" height="44px" viewBox="0 0 44 44" enable-background="new 0 0 44 44" xml:space="preserve">
<g>
	<path fill="#FFFFFF" d="M24.132,31.686c-0.422-0.255-0.888-0.383-1.398-0.383c-0.311,0-0.638,0.056-0.981,0.167
		s-0.66,0.266-0.948,0.466c-0.288,0.199-0.527,0.438-0.716,0.715c-0.188,0.278-0.282,0.583-0.282,0.915
		c0,0.556,0.222,0.96,0.665,1.215s0.909,0.383,1.397,0.383c0.333,0,0.666-0.045,0.999-0.133c0.333-0.089,0.643-0.228,0.932-0.416
		c0.288-0.188,0.521-0.421,0.698-0.699c0.178-0.277,0.267-0.604,0.267-0.981C24.764,32.357,24.553,31.941,24.132,31.686z"/>
	<path fill="#FFFFFF" d="M25.379,16.179c-0.033-0.854-0.1-1.725-0.199-2.612s-0.255-1.691-0.466-2.413
		c-0.211-0.721-0.488-1.309-0.832-1.764c-0.344-0.454-0.782-0.682-1.314-0.682c-0.599,0-1.098,0.172-1.497,0.516
		s-0.722,0.793-0.966,1.348s-0.427,1.17-0.549,1.847s-0.233,1.359-0.288,2.047c-0.057,0.688-0.107,1.337-0.107,1.946
		c0,0.61,0,1.115,0,1.515s0.029,0.971,0.039,1.714c0.012,0.743,0.063,1.553,0.129,2.429c0.066,0.877,0.172,1.77,0.305,2.679
		c0.134,0.91,0.319,1.736,0.553,2.479c0.232,0.743,0.521,1.354,0.867,1.83c0.344,0.478,0.759,0.716,1.247,0.716
		c0.399,0,0.755-0.184,1.066-0.549c0.311-0.366,0.576-0.844,0.799-1.432c0.222-0.587,0.416-1.242,0.582-1.963
		s0.294-1.432,0.383-2.13c0.088-0.699,0.155-1.354,0.199-1.964c0.045-0.609,0.067-1.092,0.067-1.447c0-0.421,0.005-0.998,0.017-1.73
		C25.424,17.825,25.413,17.032,25.379,16.179z"/>
</g>
<path fill="#FFFFFF" d="M22,0C9.85,0.001,0.001,9.85,0,22c0.001,12.15,9.85,21.999,22,22c12.15-0.001,21.999-9.85,22-22
	C43.999,9.85,34.15,0.001,22,0z M36.142,36.142C32.52,39.763,27.525,41.999,22,42c-5.525-0.001-10.52-2.237-14.142-5.858
	C4.237,32.52,2,27.525,2,22S4.237,11.48,7.858,7.858C11.48,4.237,16.475,2,22,2s10.52,2.237,14.142,5.858
	C39.763,11.48,41.999,16.475,42,22C41.999,27.525,39.763,32.52,36.142,36.142z"/>
</svg>
